<?xml version="1.0" standalone="no"?><!DOCTYPE svg PUBLIC "-//W3C//DTD SVG 1.1//EN" "http://www.w3.org/Graphics/SVG/1.1/DTD/svg11.dtd"><svg class="icon" height="512" viewBox="0 0 1024 1024" version="1.1" xmlns="http://www.w3.org/2000/svg"><path d="M234.825544 557.577877c-2.887633-8.5187-5.34632-17.218106-7.343204-26.094567-2.20862-9.80189-11.833455-16.038959-21.816051-13.793833-9.838396 2.210445-16.040784 11.975829-13.830339 21.814225 2.281632 10.124969 5.096253 20.103914 8.412833 29.836443 2.602886 7.593271 9.696022 12.370095 17.289293 12.370095 1.960378 0 3.920756-0.284748 5.881134-0.998442C232.972859 577.504736 238.069112 567.095019 234.825544 557.577877zM475.546825 729.784493c-85.623253 0-164.971105-42.704846-212.239215-114.14-5.55988-8.447514-17.00272-10.729145-25.273179-5.16744-8.412833 5.55988-10.729145 16.858521-5.169265 25.273179 54.039993 81.735352 144.759498 130.538544 242.681659 130.538544 10.088463 0 18.251229-8.128085 18.251229-18.251229C493.798054 737.98559 485.635288 729.784493 475.546825 729.784493zM1013.292758 909.157258l-104.142802-103.231974c-14.259286-14.259286-37.358526-14.259286-51.615987 0l-73.466718-73.466718c58.031936-69.618975 93.001137-159.161158 93.001137-256.904439 0-221.756357-179.799887-401.521563-401.558069-401.521563 0 0-0.036506 0-0.071187 0-221.721677 0-401.486882 179.799887-401.486882 401.558069 0.036506 221.756357 179.799887 401.556244 401.59275 401.556244 97.741455 0 187.250783-35.003882 256.904439-93.072324l73.466718 73.468544c-14.292142 14.259286-14.257461 37.358526 0 51.614162l103.2338 104.148278c14.259286 14.259286 37.358526 14.259286 51.614162 0l52.526815-52.530465C1027.5849 946.515784 1027.548394 923.416544 1013.292758 909.157258zM475.546825 804.143786c-181.156089 0-328.553153-147.39889-328.589659-328.553153 0-181.156089 147.362384-328.553153 328.481966-328.553153l0.107693 0c181.156089 0 328.516647 147.362384 328.516647 328.516647C804.063472 656.70839 656.701088 804.143786 475.546825 804.143786z" /></svg>